inDegrees=no
num_controls=7
num_derivatives=13
num_iterations=176
num_multipliers=7
num_parameters=0
num_slacks=7
num_states=26
objective=5.154456
objective_accelerations=0.538697
objective_balance=0.032784
objective_effort=0.311128
objective_height=4.207711
objective_ligament=0.064137
solver_duration=1940.856740
status=Solve_Succeeded
success=true
DataType=double
version=3
OpenSimVersion=4.4-2022-07-23-0e9fedc
endheader
time	/jointset/ground_pelvis/pelvis_tilt/value	/jointset/ground_pelvis/pelvis_tx/value	/jointset/ground_pelvis/pelvis_ty/value	/jointset/hip_l/hip_flexion_l/value	/jointset/hip_l/hip_adduction_l/value	/jointset/hip_l/hip_rotation_l/value	/jointset/back/lumbar_extension/value	/jointset/patellofemoral_l/patellar_flexion_l/value	/jointset/knee_l/knee_flexion_l/value	/jointset/knee_l/knee_adduction_l/value	/jointset/knee_l/knee_rotation_l/value	/jointset/ankle_l/ankle_angle_l/value	/jointset/subtalar_l/subtalar_angle_l/value	/jointset/ground_pelvis/pelvis_tilt/speed	/jointset/ground_pelvis/pelvis_tx/speed	/jointset/ground_pelvis/pelvis_ty/speed	/jointset/hip_l/hip_flexion_l/speed	/jointset/hip_l/hip_adduction_l/speed	/jointset/hip_l/hip_rotation_l/speed	/jointset/back/lumbar_extension/speed	/jointset/patellofemoral_l/patellar_flexion_l/speed	/jointset/knee_l/knee_flexion_l/speed	/jointset/knee_l/knee_adduction_l/speed	/jointset/knee_l/knee_rotation_l/speed	/jointset/ankle_l/ankle_angle_l/speed	/jointset/subtalar_l/subtalar_angle_l/speed	/forceset/tau_hip_flexion_l	/forceset/tau_hip_adduction_l	/forceset/tau_hip_rotation_l	/forceset/tau_knee_flexion_l	/forceset/tau_ankle_angle_l	/forceset/tau_subtalar_angle_l	/forceset/tau_lumbar_extension	lambda_cid13_p0	lambda_cid13_p1	lambda_cid13_p2	lambda_cid13_p3	lambda_cid13_p4	lambda_cid13_p5	lambda_cid14_p0	/jointset/ground_pelvis/pelvis_tilt/accel	/jointset/ground_pelvis/pelvis_tx/accel	/jointset/ground_pelvis/pelvis_ty/accel	/jointset/hip_l/hip_flexion_l/accel	/jointset/hip_l/hip_adduction_l/accel	/jointset/hip_l/hip_rotation_l/accel	/jointset/back/lumbar_extension/accel	/jointset/patellofemoral_l/patellar_flexion_l/accel	/jointset/knee_l/knee_flexion_l/accel	/jointset/knee_l/knee_adduction_l/accel	/jointset/knee_l/knee_rotation_l/accel	/jointset/ankle_l/ankle_angle_l/accel	/jointset/subtalar_l/subtalar_angle_l/accel	gamma_cid13_p0	gamma_cid13_p1	gamma_cid13_p2	gamma_cid13_p3	gamma_cid13_p4	gamma_cid13_p5	gamma_cid14_p0
1	-0.7174480418311119	-0.1805284748690695	0.6210580012231325	1.844814932756371	-0.4700719799813524	-0.1307195287668759	-0.2617992658425501	0.981009475110651	0.9810094751106644	-0.1699705672072219	-0.1745328218202728	-0.08674384420716237	-0.1638632298218744	-0.02037479647246714	0.009176891458720079	0.004215620815083768	0.001627659812410687	-0.0003272387645311227	0.0001430854333325956	-3.034843142574219e-07	-0.003682983239205416	-0.003682983239205419	-0.002727173980699881	5.603215465167159e-07	0.01505690775810836	0.006312398888091612	-0.4061554042113869	0.01166335841698413	-0.001971624275880237	-0.192153340404023	0.1672279478042742	0.08455090534616372	0.329075360505537	12.3221862226251	-39.65970508403992	6.879838325555319	-8.059317243133941	-633.2160666935757	-51.52205111413443	-17.60782506443044	2.391461738720953	0.7035922366625402	1.610303959044263	-6.700060093950905	0.2311379484043845	-1.772098668004811	-0.02753540959405171	-3.686599596602722	-3.686599596602681	-0.102623739258737	-0.01328278091646283	0.231725185218989	0.3537647513464623	9.521836279345281e-10	4.313105233152903e-09	-2.79767173807257e-09	2.679813207265051e-09	-2.699247865329881e-09	4.985009875139932e-09	9.73822447077416e-10
1.01	-0.7175334901307892	-0.1804015993903402	0.6211805242569243	1.84449781382134	-0.4700630009427044	-0.1308066737304841	-0.2617992744623459	0.9807883201116935	0.9807883201117029	-0.170001716824472	-0.174532812782664	-0.08658160733916032	-0.1637816879775115	0.00328621195881068	0.01620352828773188	0.02028590553904713	-0.06504786369448705	0.002123965750444905	-0.01756778702818289	-1.058630862359095e-06	-0.04054007111507676	-0.04054007111507409	-0.003502338830691911	1.062211018297584e-06	0.01739522353870803	0.009999149152764418	-0.4059846019753559	0.01164246451194417	-0.001968531984509897	-0.1921751349420371	0.1672742522221629	0.08454587899060655	0.3289680914860552	12.34789531067964	-39.66879642385385	6.889023847077234	-8.192863227035328	-633.0997705965196	-51.56166572752557	-17.61802732512502	2.353581261389351	0.7029978623707989	1.604927233132974	-6.65076159330913	0.2522507702919129	-1.769940177119326	0.01370870937194934	-3.684070909205823	-3.684070909205456	-0.06490266662080359	0.006690940050036347	0.235598604719475	0.3766067681583751	-1.379342693000167e-09	-2.65870788289973e-09	5.985490690737499e-09	-6.847381219598628e-10	-7.131737493228729e-09	1.947707056089238e-08	-3.248746310978729e-09
1.02	-0.7173822961729418	-0.1802042978520507	0.621463657438768	1.843514047028389	-0.4700294820454575	-0.1310707991470877	-0.261799279778295	0.9801988327287521	0.9801988327287576	-0.1700406060519684	-0.1745328038729354	-0.0863958445473046	-0.1636631833096757	0.02695365503241566	0.02326210337074768	0.03633765042543967	-0.1317019117713822	0.004580732955329761	-0.0352530051654752	3.572848755526057e-07	-0.07734946003600744	-0.07734946003600231	-0.004275096030739636	5.347473313041467e-07	0.01976209252886854	0.01370496358266432	-0.4058137997393285	0.01162157060689967	-0.00196543969312365	-0.1921969294800519	0.1673205566400507	0.08454085263504428	0.3288608224665709	12.37068805151537	-39.67858472716465	6.899699978966833	-8.349466417727211	-633.0503076257618	-51.60768541725388	-17.64489171167009	2.392748667186381	0.7099798874633421	1.606595991530099	-6.695765007950395	0.2322504863861366	-1.766967803160199	-0.02710119713685934	-3.677059805614586	-3.677059805614585	-0.102142209269881	-0.01348865154824655	0.2374358271311579	0.3575775843918676	-3.439534455916366e-09	-9.200431415321539e-09	1.43454016449555e-08	-4.12889126054932e-09	-1.121247964772539e-08	3.295946265223555e-08	-7.198952714196526e-09
1.03	-0.7169944018532008	-0.1799362430271039	0.6219071473320934	1.841863996089759	-0.4699713317069629	-0.131511605247453	-0.2617992721264911	0.979241559708333	0.9792415597083488	-0.1700871819229906	-0.1745327992162271	-0.08618632108589511	-0.1635075109462781	0.05062502070134409	0.03035490515951102	0.05235043957789149	-0.1982889871515885	0.00705477583091174	-0.05289870793486983	1.006608895388252e-06	-0.114090409095242	-0.1140904090952405	-0.005035798025941884	2.321076047609891e-06	0.02214254308264779	0.01743513255238391	-0.4052518071906753	0.01162420580222498	-0.001964483594771646	-0.192194541024624	0.167263177015188	0.08453023789211128	0.3284867541374416	12.37830377176329	-39.68492703148537	6.911698069361132	-8.488071669349608	-632.7032436844726	-51.71780970763542	-17.68844125543186	2.354300736457441	0.7098353200743012	1.597133995203379	-6.63728731060352	0.2557992171302981	-1.761952973377654	0.01362302706858143	-3.670399959961446	-3.670399959961995	-0.06239637901586118	0.007307941246301046	0.2383415752799065	0.3815799386053348	-5.496957498852784e-09	-1.573776627852262e-08	2.270099370657561e-08	-7.573856662499641e-09	-1.528963254228938e-08	4.643155200281944e-08	-1.114637990971189e-08
